<?xml version="1.0" encoding="utf-8"?>
<!-- Generator: Adobe Illustrator 21.1.0, SVG Export Plug-In . SVG Version: 6.00 Build 0)  -->
<svg version="1.1" id="Layer_1" xmlns="http://www.w3.org/2000/svg" xmlns:xlink="http://www.w3.org/1999/xlink" x="0px" y="0px"
	 viewBox="0 0 1000 1000" style="enable-background:new 0 0 1000 1000;" xml:space="preserve">
<style type="text/css">
	.st0{fill:#FFFFFF;}
</style>
<g>
	<path class="st0" d="M502.4,1C227.5-1.2,3.2,221.7,0.4,500.2C0.8,775.3,220.8,999.7,498.6,1001c274.7,1.2,500.5-219,501.8-498
		C1001.7,228.5,781.6,3.3,502.4,1z M500.2,910.1C273.4,909,90.7,726,91.6,500.8C92.3,273.4,275.5,91.4,502.9,92.2
		C728,92.8,910.8,277.7,909.5,503.6C908.3,728.3,724,911.3,500.2,910.1z"/>
	<path class="st0" d="M501.6,183.3h-0.1c-24.9,0-45.2,20.2-45.2,45.1l-0.5,272.5c0,25,20.1,45.3,45.2,45.3
		c24.9,0,45.2-20.2,45.2-45.1l0.5-272.5C546.8,203.6,526.6,183.3,501.6,183.3z"/>
</g>
</svg>
